<?xml version="1.0" encoding="UTF-8"?>
<svg width="124px" height="124px" viewBox="0 0 124 124" version="1.1" xmlns="http://www.w3.org/2000/svg" xmlns:xlink="http://www.w3.org/1999/xlink">
    <g id="main" stroke="none" stroke-width="1" fill-rule="evenodd">
        <g id="Group-37" transform="translate(62.000000, 62.000000) rotate(-345.000000) translate(-62.000000, -62.000000) translate(11.000000, 11.000000)">
            <path d="M3.63309073,9.95121952e-05 C1.62642732,9.95121952e-05 -9.95121952e-05,1.62662634 -9.95121952e-05,3.63328976 C-9.95121952e-05,5.63945561 1.62642732,7.26648 3.63309073,7.26648 C5.63975415,7.26648 7.26628098,5.63945561 7.26628098,3.63328976 C7.26628098,1.62662634 5.63975415,9.95121952e-05 3.63309073,9.95121952e-05" id="Fill-1"></path>
            <path d="M3.63309073,31.5286976 C1.62642732,31.5286976 -9.95121952e-05,33.1552244 -9.95121952e-05,35.1618878 C-9.95121952e-05,37.1680537 1.62642732,38.795078 3.63309073,38.795078 C5.63975415,38.795078 7.26628098,37.1680537 7.26628098,35.1618878 C7.26628098,33.1552244 5.63975415,31.5286976 3.63309073,31.5286976" id="Fill-4"></path>
            <path d="M3.63309073,63.0572459 C1.62642732,63.0572459 -9.95121952e-05,64.6837727 -9.95121952e-05,66.6904361 C-9.95121952e-05,68.6970995 1.62642732,70.3236263 3.63309073,70.3236263 C5.63975415,70.3236263 7.26628098,68.6970995 7.26628098,66.6904361 C7.26628098,64.6837727 5.63975415,63.0572459 3.63309073,63.0572459" id="Fill-7"></path>
            <path d="M3.63309073,94.5857941 C1.62642732,94.5857941 -9.95121952e-05,96.2128185 -9.95121952e-05,98.2189844 C-9.95121952e-05,100.225648 1.62642732,101.852175 3.63309073,101.852175 C5.63975415,101.852175 7.26628098,100.225648 7.26628098,98.2189844 C7.26628098,96.2128185 5.63975415,94.5857941 3.63309073,94.5857941" id="Fill-10"></path>
            <path d="M35.1618878,9.95121951e-05 C33.1552244,9.95121951e-05 31.5286976,1.62662634 31.5286976,3.63328976 C31.5286976,5.63945561 33.1552244,7.26648 35.1618878,7.26648 C37.1685512,7.26648 38.795078,5.63945561 38.795078,3.63328976 C38.795078,1.62662634 37.1685512,9.95121951e-05 35.1618878,9.95121951e-05" id="Fill-13"></path>
            <path d="M35.1618878,31.5286976 C33.1552244,31.5286976 31.5286976,33.1552244 31.5286976,35.1618878 C31.5286976,37.1680537 33.1552244,38.795078 35.1618878,38.795078 C37.1685512,38.795078 38.795078,37.1680537 38.795078,35.1618878 C38.795078,33.1552244 37.1685512,31.5286976 35.1618878,31.5286976" id="Fill-15"></path>
            <path d="M35.1618878,63.0572459 C33.1552244,63.0572459 31.5286976,64.6837727 31.5286976,66.6904361 C31.5286976,68.6970995 33.1552244,70.3236263 35.1618878,70.3236263 C37.1685512,70.3236263 38.795078,68.6970995 38.795078,66.6904361 C38.795078,64.6837727 37.1685512,63.0572459 35.1618878,63.0572459" id="Fill-17"></path>
            <path d="M35.1618878,94.5857941 C33.1552244,94.5857941 31.5286976,96.2128185 31.5286976,98.2189844 C31.5286976,100.225648 33.1552244,101.852175 35.1618878,101.852175 C37.1685512,101.852175 38.795078,100.225648 38.795078,98.2189844 C38.795078,96.2128185 37.1685512,94.5857941 35.1618878,94.5857941" id="Fill-19"></path>
            <path d="M66.6904361,9.95121952e-05 C64.6837727,9.95121952e-05 63.0572459,1.62662634 63.0572459,3.63328976 C63.0572459,5.63945561 64.6837727,7.26648 66.6904361,7.26648 C68.6970995,7.26648 70.3236263,5.63945561 70.3236263,3.63328976 C70.3236263,1.62662634 68.6970995,9.95121952e-05 66.6904361,9.95121952e-05" id="Fill-21"></path>
            <path d="M66.6904361,31.5286976 C64.6837727,31.5286976 63.0572459,33.1552244 63.0572459,35.1618878 C63.0572459,37.1680537 64.6837727,38.795078 66.6904361,38.795078 C68.6970995,38.795078 70.3236263,37.1680537 70.3236263,35.1618878 C70.3236263,33.1552244 68.6970995,31.5286976 66.6904361,31.5286976" id="Fill-23"></path>
            <path d="M66.6904361,63.0572459 C64.6837727,63.0572459 63.0572459,64.6837727 63.0572459,66.6904361 C63.0572459,68.6970995 64.6837727,70.3236263 66.6904361,70.3236263 C68.6970995,70.3236263 70.3236263,68.6970995 70.3236263,66.6904361 C70.3236263,64.6837727 68.6970995,63.0572459 66.6904361,63.0572459" id="Fill-25"></path>
            <path d="M66.6904361,94.5857941 C64.6837727,94.5857941 63.0572459,96.2128185 63.0572459,98.2189844 C63.0572459,100.225648 64.6837727,101.852175 66.6904361,101.852175 C68.6970995,101.852175 70.3236263,100.225648 70.3236263,98.2189844 C70.3236263,96.2128185 68.6970995,94.5857941 66.6904361,94.5857941" id="Fill-27"></path>
            <path d="M98.2189844,9.95121952e-05 C96.212321,9.95121952e-05 94.5857941,1.62662634 94.5857941,3.63328976 C94.5857941,5.63945561 96.212321,7.26648 98.2189844,7.26648 C100.225648,7.26648 101.852175,5.63945561 101.852175,3.63328976 C101.852175,1.62662634 100.225648,9.95121952e-05 98.2189844,9.95121952e-05" id="Fill-29"></path>
            <path d="M98.2189844,31.5286976 C96.212321,31.5286976 94.5857941,33.1552244 94.5857941,35.1618878 C94.5857941,37.1680537 96.212321,38.795078 98.2189844,38.795078 C100.225648,38.795078 101.852175,37.1680537 101.852175,35.1618878 C101.852175,33.1552244 100.225648,31.5286976 98.2189844,31.5286976" id="Fill-31"></path>
            <path d="M98.2189844,63.0572459 C96.212321,63.0572459 94.5857941,64.6837727 94.5857941,66.6904361 C94.5857941,68.6970995 96.212321,70.3236263 98.2189844,70.3236263 C100.225648,70.3236263 101.852175,68.6970995 101.852175,66.6904361 C101.852175,64.6837727 100.225648,63.0572459 98.2189844,63.0572459" id="Fill-33"></path>
            <path d="M98.2189844,94.5857941 C96.212321,94.5857941 94.5857941,96.2128185 94.5857941,98.2189844 C94.5857941,100.225648 96.212321,101.852175 98.2189844,101.852175 C100.225648,101.852175 101.852175,100.225648 101.852175,98.2189844 C101.852175,96.2128185 100.225648,94.5857941 98.2189844,94.5857941" id="Fill-35"></path>
        </g>
    </g>
</svg>