<?xml version="1.0" encoding="UTF-8"?>
<svg width="400px" height="418px" viewBox="0 0 400 418" version="1.1" xmlns="http://www.w3.org/2000/svg" xmlns:xlink="http://www.w3.org/1999/xlink">
    <g id="main" stroke="none" stroke-width="1" fill-rule="evenodd">
        <g id="Dots" transform="translate(200.000000, 209.350195) rotate(-325.000000) translate(-200.000000, -209.350195) translate(72.000000, 43.000000)">
            <path d="M2.41194942,0.00161569069 C1.07975845,0.00161569069 -6.60645161e-05,1.07951219 -6.60645161e-05,2.40932455 C-6.60645161e-05,3.73880718 1.07975845,4.81703341 2.41194942,4.81703341 C3.74414039,4.81703341 4.8239649,3.73880718 4.8239649,2.40932455 C4.8239649,1.07951219 3.74414039,0.00161569069 2.41194942,0.00161569069" id="Fill-1"></path>
            <path d="M2.41194942,20.8955299 C1.07975845,20.8955299 -6.60645161e-05,21.9734264 -6.60645161e-05,23.3032387 C-6.60645161e-05,24.6327213 1.07975845,25.7109476 2.41194942,25.7109476 C3.74414039,25.7109476 4.8239649,24.6327213 4.8239649,23.3032387 C4.8239649,21.9734264 3.74414039,20.8955299 2.41194942,20.8955299" id="Fill-4"></path>
            <path d="M2.41194942,41.789444 C1.07975845,41.789444 -6.60645161e-05,42.8673405 -6.60645161e-05,44.1971529 C-6.60645161e-05,45.5269652 1.07975845,46.6048618 2.41194942,46.6048618 C3.74414039,46.6048618 4.8239649,45.5269652 4.8239649,44.1971529 C4.8239649,42.8673405 3.74414039,41.789444 2.41194942,41.789444" id="Fill-7"></path>
            <path d="M2.41194942,62.6833582 C1.07975845,62.6833582 -6.60645161e-05,63.7615844 -6.60645161e-05,65.0910671 C-6.60645161e-05,66.4208794 1.07975845,67.4987759 2.41194942,67.4987759 C3.74414039,67.4987759 4.8239649,66.4208794 4.8239649,65.0910671 C4.8239649,63.7615844 3.74414039,62.6833582 2.41194942,62.6833582" id="Fill-10"></path>
            <path d="M2.41194942,83.5774372 C1.07975845,83.5774372 -6.60645161e-05,84.6553337 -6.60645161e-05,85.9851461 C-6.60645161e-05,87.3146287 1.07975845,88.392855 2.41194942,88.392855 C3.74414039,88.392855 4.8239649,87.3146287 4.8239649,85.9851461 C4.8239649,84.6553337 3.74414039,83.5774372 2.41194942,83.5774372" id="Fill-13"></path>
            <path d="M2.41194942,104.471351 C1.07975845,104.471351 -6.60645161e-05,105.549578 -6.60645161e-05,106.87906 C-6.60645161e-05,108.208873 1.07975845,109.286769 2.41194942,109.286769 C3.74414039,109.286769 4.8239649,108.208873 4.8239649,106.87906 C4.8239649,105.549578 3.74414039,104.471351 2.41194942,104.471351" id="Fill-16"></path>
            <path d="M2.41194942,125.365266 C1.07975845,125.365266 -6.60645161e-05,126.443492 -6.60645161e-05,127.772974 C-6.60645161e-05,129.102787 1.07975845,130.180683 2.41194942,130.180683 C3.74414039,130.180683 4.8239649,129.102787 4.8239649,127.772974 C4.8239649,126.443492 3.74414039,125.365266 2.41194942,125.365266" id="Fill-19"></path>
            <path d="M2.41194942,146.25918 C1.07975845,146.25918 -6.60645161e-05,147.337406 -6.60645161e-05,148.666889 C-6.60645161e-05,149.996701 1.07975845,151.074597 2.41194942,151.074597 C3.74414039,151.074597 4.8239649,149.996701 4.8239649,148.666889 C4.8239649,147.337406 3.74414039,146.25918 2.41194942,146.25918" id="Fill-22"></path>
            <path d="M2.41194942,167.153127 C1.07975845,167.153127 -6.60645161e-05,168.231353 -6.60645161e-05,169.561165 C-6.60645161e-05,170.890648 1.07975845,171.968545 2.41194942,171.968545 C3.74414039,171.968545 4.8239649,170.890648 4.8239649,169.561165 C4.8239649,168.231353 3.74414039,167.153127 2.41194942,167.153127" id="Fill-25"></path>
            <path d="M2.41194942,188.047041 C1.07975845,188.047041 -6.60645161e-05,189.125267 -6.60645161e-05,190.45508 C-6.60645161e-05,191.784562 1.07975845,192.862459 2.41194942,192.862459 C3.74414039,192.862459 4.8239649,191.784562 4.8239649,190.45508 C4.8239649,189.125267 3.74414039,188.047041 2.41194942,188.047041" id="Fill-28"></path>
            <path d="M2.41194942,208.941285 C1.07975845,208.941285 -6.60645161e-05,210.019181 -6.60645161e-05,211.348994 C-6.60645161e-05,212.678476 1.07975845,213.756703 2.41194942,213.756703 C3.74414039,213.756703 4.8239649,212.678476 4.8239649,211.348994 C4.8239649,210.019181 3.74414039,208.941285 2.41194942,208.941285" id="Fill-31"></path>
            <path d="M2.41194942,229.835199 C1.07975845,229.835199 -6.60645161e-05,230.913096 -6.60645161e-05,232.242908 C-6.60645161e-05,233.572391 1.07975845,234.650617 2.41194942,234.650617 C3.74414039,234.650617 4.8239649,233.572391 4.8239649,232.242908 C4.8239649,230.913096 3.74414039,229.835199 2.41194942,229.835199" id="Fill-34"></path>
            <path d="M2.41194942,250.729113 C1.07975845,250.729113 -6.60645161e-05,251.80701 -6.60645161e-05,253.136822 C-6.60645161e-05,254.466635 1.07975845,255.544531 2.41194942,255.544531 C3.74414039,255.544531 4.8239649,254.466635 4.8239649,253.136822 C4.8239649,251.80701 3.74414039,250.729113 2.41194942,250.729113" id="Fill-37"></path>
            <path d="M2.41194942,271.623027 C1.07975845,271.623027 -6.60645161e-05,272.701254 -6.60645161e-05,274.030736 C-6.60645161e-05,275.360549 1.07975845,276.438445 2.41194942,276.438445 C3.74414039,276.438445 4.8239649,275.360549 4.8239649,274.030736 C4.8239649,272.701254 3.74414039,271.623027 2.41194942,271.623027" id="Fill-40"></path>
            <path d="M2.41194942,292.516942 C1.07975845,292.516942 -6.60645161e-05,293.595168 -6.60645161e-05,294.92465 C-6.60645161e-05,296.254463 1.07975845,297.332359 2.41194942,297.332359 C3.74414039,297.332359 4.8239649,296.254463 4.8239649,294.92465 C4.8239649,293.595168 3.74414039,292.516942 2.41194942,292.516942" id="Fill-43"></path>
            <path d="M2.41194942,310.113528 C1.07975845,310.113528 -6.60645161e-05,311.191754 -6.60645161e-05,312.521237 C-6.60645161e-05,313.851049 1.07975845,314.928946 2.41194942,314.928946 C3.74414039,314.928946 4.8239649,313.851049 4.8239649,312.521237 C4.8239649,311.191754 3.74414039,310.113528 2.41194942,310.113528" id="Fill-46"></path>
            <path d="M2.41194942,327.710114 C1.07975845,327.710114 -6.60645161e-05,328.78834 -6.60645161e-05,330.118153 C-6.60645161e-05,331.447635 1.07975845,332.525532 2.41194942,332.525532 C3.74414039,332.525532 4.8239649,331.447635 4.8239649,330.118153 C4.8239649,328.78834 3.74414039,327.710114 2.41194942,327.710114" id="Fill-49"></path>
            <path d="M23.3434013,0.00161569069 C22.0112103,0.00161569069 20.9313858,1.07951219 20.9313858,2.40932455 C20.9313858,3.73880718 22.0112103,4.81703341 23.3434013,4.81703341 C24.6755923,4.81703341 25.7554168,3.73880718 25.7554168,2.40932455 C25.7554168,1.07951219 24.6755923,0.00161569069 23.3434013,0.00161569069" id="Fill-52"></path>
            <path d="M23.3434013,20.8955299 C22.0112103,20.8955299 20.9313858,21.9734264 20.9313858,23.3032387 C20.9313858,24.6327213 22.0112103,25.7109476 23.3434013,25.7109476 C24.6755923,25.7109476 25.7554168,24.6327213 25.7554168,23.3032387 C25.7554168,21.9734264 24.6755923,20.8955299 23.3434013,20.8955299" id="Fill-55"></path>
            <path d="M23.3434013,41.789444 C22.0112103,41.789444 20.9313858,42.8673405 20.9313858,44.1971529 C20.9313858,45.5269652 22.0112103,46.6048618 23.3434013,46.6048618 C24.6755923,46.6048618 25.7554168,45.5269652 25.7554168,44.1971529 C25.7554168,42.8673405 24.6755923,41.789444 23.3434013,41.789444" id="Fill-57"></path>
            <path d="M23.3434013,62.6833582 C22.0112103,62.6833582 20.9313858,63.7615844 20.9313858,65.0910671 C20.9313858,66.4208794 22.0112103,67.4987759 23.3434013,67.4987759 C24.6755923,67.4987759 25.7554168,66.4208794 25.7554168,65.0910671 C25.7554168,63.7615844 24.6755923,62.6833582 23.3434013,62.6833582" id="Fill-59"></path>
            <path d="M23.3434013,83.5774372 C22.0112103,83.5774372 20.9313858,84.6553337 20.9313858,85.9851461 C20.9313858,87.3146287 22.0112103,88.392855 23.3434013,88.392855 C24.6755923,88.392855 25.7554168,87.3146287 25.7554168,85.9851461 C25.7554168,84.6553337 24.6755923,83.5774372 23.3434013,83.5774372" id="Fill-61"></path>
            <path d="M23.3434013,104.471351 C22.0112103,104.471351 20.9313858,105.549578 20.9313858,106.87906 C20.9313858,108.208873 22.0112103,109.286769 23.3434013,109.286769 C24.6755923,109.286769 25.7554168,108.208873 25.7554168,106.87906 C25.7554168,105.549578 24.6755923,104.471351 23.3434013,104.471351" id="Fill-63"></path>
            <path d="M23.3434013,125.365266 C22.0112103,125.365266 20.9313858,126.443492 20.9313858,127.772974 C20.9313858,129.102787 22.0112103,130.180683 23.3434013,130.180683 C24.6755923,130.180683 25.7554168,129.102787 25.7554168,127.772974 C25.7554168,126.443492 24.6755923,125.365266 23.3434013,125.365266" id="Fill-65"></path>
            <path d="M23.3434013,146.25918 C22.0112103,146.25918 20.9313858,147.337406 20.9313858,148.666889 C20.9313858,149.996701 22.0112103,151.074597 23.3434013,151.074597 C24.6755923,151.074597 25.7554168,149.996701 25.7554168,148.666889 C25.7554168,147.337406 24.6755923,146.25918 23.3434013,146.25918" id="Fill-67"></path>
            <path d="M23.3434013,167.153127 C22.0112103,167.153127 20.9313858,168.231353 20.9313858,169.561165 C20.9313858,170.890648 22.0112103,171.968545 23.3434013,171.968545 C24.6755923,171.968545 25.7554168,170.890648 25.7554168,169.561165 C25.7554168,168.231353 24.6755923,167.153127 23.3434013,167.153127" id="Fill-69"></path>
            <path d="M23.3434013,188.047041 C22.0112103,188.047041 20.9313858,189.125267 20.9313858,190.45508 C20.9313858,191.784562 22.0112103,192.862459 23.3434013,192.862459 C24.6755923,192.862459 25.7554168,191.784562 25.7554168,190.45508 C25.7554168,189.125267 24.6755923,188.047041 23.3434013,188.047041" id="Fill-71"></path>
            <path d="M23.3434013,208.941285 C22.0112103,208.941285 20.9313858,210.019181 20.9313858,211.348994 C20.9313858,212.678476 22.0112103,213.756703 23.3434013,213.756703 C24.6755923,213.756703 25.7554168,212.678476 25.7554168,211.348994 C25.7554168,210.019181 24.6755923,208.941285 23.3434013,208.941285" id="Fill-73"></path>
            <path d="M23.3434013,229.835199 C22.0112103,229.835199 20.9313858,230.913096 20.9313858,232.242908 C20.9313858,233.572391 22.0112103,234.650617 23.3434013,234.650617 C24.6755923,234.650617 25.7554168,233.572391 25.7554168,232.242908 C25.7554168,230.913096 24.6755923,229.835199 23.3434013,229.835199" id="Fill-75"></path>
            <path d="M23.3434013,250.729113 C22.0112103,250.729113 20.9313858,251.80701 20.9313858,253.136822 C20.9313858,254.466635 22.0112103,255.544531 23.3434013,255.544531 C24.6755923,255.544531 25.7554168,254.466635 25.7554168,253.136822 C25.7554168,251.80701 24.6755923,250.729113 23.3434013,250.729113" id="Fill-77"></path>
            <path d="M23.3434013,271.623027 C22.0112103,271.623027 20.9313858,272.701254 20.9313858,274.030736 C20.9313858,275.360549 22.0112103,276.438445 23.3434013,276.438445 C24.6755923,276.438445 25.7554168,275.360549 25.7554168,274.030736 C25.7554168,272.701254 24.6755923,271.623027 23.3434013,271.623027" id="Fill-79"></path>
            <path d="M23.3434013,292.516942 C22.0112103,292.516942 20.9313858,293.595168 20.9313858,294.92465 C20.9313858,296.254463 22.0112103,297.332359 23.3434013,297.332359 C24.6755923,297.332359 25.7554168,296.254463 25.7554168,294.92465 C25.7554168,293.595168 24.6755923,292.516942 23.3434013,292.516942" id="Fill-81"></path>
            <path d="M23.3434013,310.113528 C22.0112103,310.113528 20.9313858,311.191754 20.9313858,312.521237 C20.9313858,313.851049 22.0112103,314.928946 23.3434013,314.928946 C24.6755923,314.928946 25.7554168,313.851049 25.7554168,312.521237 C25.7554168,311.191754 24.6755923,310.113528 23.3434013,310.113528" id="Fill-83"></path>
            <path d="M23.3434013,327.710114 C22.0112103,327.710114 20.9313858,328.78834 20.9313858,330.118153 C20.9313858,331.447635 22.0112103,332.525532 23.3434013,332.525532 C24.6755923,332.525532 25.7554168,331.447635 25.7554168,330.118153 C25.7554168,328.78834 24.6755923,327.710114 23.3434013,327.710114" id="Fill-85"></path>
            <path d="M44.274688,0.00161569069 C42.942497,0.00161569069 41.8626725,1.07951219 41.8626725,2.40932455 C41.8626725,3.73880718 42.942497,4.81703341 44.274688,4.81703341 C45.606879,4.81703341 46.6867035,3.73880718 46.6867035,2.40932455 C46.6867035,1.07951219 45.606879,0.00161569069 44.274688,0.00161569069" id="Fill-87"></path>
            <path d="M44.274688,20.8955299 C42.942497,20.8955299 41.8626725,21.9734264 41.8626725,23.3032387 C41.8626725,24.6327213 42.942497,25.7109476 44.274688,25.7109476 C45.606879,25.7109476 46.6867035,24.6327213 46.6867035,23.3032387 C46.6867035,21.9734264 45.606879,20.8955299 44.274688,20.8955299" id="Fill-90"></path>
            <path d="M44.274688,41.789444 C42.942497,41.789444 41.8626725,42.8673405 41.8626725,44.1971529 C41.8626725,45.5269652 42.942497,46.6048618 44.274688,46.6048618 C45.606879,46.6048618 46.6867035,45.5269652 46.6867035,44.1971529 C46.6867035,42.8673405 45.606879,41.789444 44.274688,41.789444" id="Fill-92"></path>
            <path d="M44.274688,62.6833582 C42.942497,62.6833582 41.8626725,63.7615844 41.8626725,65.0910671 C41.8626725,66.4208794 42.942497,67.4987759 44.274688,67.4987759 C45.606879,67.4987759 46.6867035,66.4208794 46.6867035,65.0910671 C46.6867035,63.7615844 45.606879,62.6833582 44.274688,62.6833582" id="Fill-94"></path>
            <path d="M44.274688,83.5774372 C42.942497,83.5774372 41.8626725,84.6553337 41.8626725,85.9851461 C41.8626725,87.3146287 42.942497,88.392855 44.274688,88.392855 C45.606879,88.392855 46.6867035,87.3146287 46.6867035,85.9851461 C46.6867035,84.6553337 45.606879,83.5774372 44.274688,83.5774372" id="Fill-96"></path>
            <path d="M44.274688,104.471351 C42.942497,104.471351 41.8626725,105.549578 41.8626725,106.87906 C41.8626725,108.208873 42.942497,109.286769 44.274688,109.286769 C45.606879,109.286769 46.6867035,108.208873 46.6867035,106.87906 C46.6867035,105.549578 45.606879,104.471351 44.274688,104.471351" id="Fill-98"></path>
            <path d="M44.274688,125.365266 C42.942497,125.365266 41.8626725,126.443492 41.8626725,127.772974 C41.8626725,129.102787 42.942497,130.180683 44.274688,130.180683 C45.606879,130.180683 46.6867035,129.102787 46.6867035,127.772974 C46.6867035,126.443492 45.606879,125.365266 44.274688,125.365266" id="Fill-100"></path>
            <path d="M44.274688,146.25918 C42.942497,146.25918 41.8626725,147.337406 41.8626725,148.666889 C41.8626725,149.996701 42.942497,151.074597 44.274688,151.074597 C45.606879,151.074597 46.6867035,149.996701 46.6867035,148.666889 C46.6867035,147.337406 45.606879,146.25918 44.274688,146.25918" id="Fill-102"></path>
            <path d="M44.274688,167.153127 C42.942497,167.153127 41.8626725,168.231353 41.8626725,169.561165 C41.8626725,170.890648 42.942497,171.968545 44.274688,171.968545 C45.606879,171.968545 46.6867035,170.890648 46.6867035,169.561165 C46.6867035,168.231353 45.606879,167.153127 44.274688,167.153127" id="Fill-104"></path>
            <path d="M44.274688,188.047041 C42.942497,188.047041 41.8626725,189.125267 41.8626725,190.45508 C41.8626725,191.784562 42.942497,192.862459 44.274688,192.862459 C45.606879,192.862459 46.6867035,191.784562 46.6867035,190.45508 C46.6867035,189.125267 45.606879,188.047041 44.274688,188.047041" id="Fill-106"></path>
            <path d="M44.274688,208.941285 C42.942497,208.941285 41.8626725,210.019181 41.8626725,211.348994 C41.8626725,212.678476 42.942497,213.756703 44.274688,213.756703 C45.606879,213.756703 46.6867035,212.678476 46.6867035,211.348994 C46.6867035,210.019181 45.606879,208.941285 44.274688,208.941285" id="Fill-108"></path>
            <path d="M44.274688,229.835199 C42.942497,229.835199 41.8626725,230.913096 41.8626725,232.242908 C41.8626725,233.572391 42.942497,234.650617 44.274688,234.650617 C45.606879,234.650617 46.6867035,233.572391 46.6867035,232.242908 C46.6867035,230.913096 45.606879,229.835199 44.274688,229.835199" id="Fill-110"></path>
            <path d="M44.274688,250.729113 C42.942497,250.729113 41.8626725,251.80701 41.8626725,253.136822 C41.8626725,254.466635 42.942497,255.544531 44.274688,255.544531 C45.606879,255.544531 46.6867035,254.466635 46.6867035,253.136822 C46.6867035,251.80701 45.606879,250.729113 44.274688,250.729113" id="Fill-112"></path>
            <path d="M44.274688,271.623027 C42.942497,271.623027 41.8626725,272.701254 41.8626725,274.030736 C41.8626725,275.360549 42.942497,276.438445 44.274688,276.438445 C45.606879,276.438445 46.6867035,275.360549 46.6867035,274.030736 C46.6867035,272.701254 45.606879,271.623027 44.274688,271.623027" id="Fill-114"></path>
            <path d="M44.274688,292.516942 C42.942497,292.516942 41.8626725,293.595168 41.8626725,294.92465 C41.8626725,296.254463 42.942497,297.332359 44.274688,297.332359 C45.606879,297.332359 46.6867035,296.254463 46.6867035,294.92465 C46.6867035,293.595168 45.606879,292.516942 44.274688,292.516942" id="Fill-116"></path>
            <path d="M44.274688,310.113528 C42.942497,310.113528 41.8626725,311.191754 41.8626725,312.521237 C41.8626725,313.851049 42.942497,314.928946 44.274688,314.928946 C45.606879,314.928946 46.6867035,313.851049 46.6867035,312.521237 C46.6867035,311.191754 45.606879,310.113528 44.274688,310.113528" id="Fill-118"></path>
            <path d="M44.274688,327.710114 C42.942497,327.710114 41.8626725,328.78834 41.8626725,330.118153 C41.8626725,331.447635 42.942497,332.525532 44.274688,332.525532 C45.606879,332.525532 46.6867035,331.447635 46.6867035,330.118153 C46.6867035,328.78834 45.606879,327.710114 44.274688,327.710114" id="Fill-120"></path>
            <path d="M65.2059747,0.00161569069 C63.8737837,0.00161569069 62.7939592,1.07951219 62.7939592,2.40932455 C62.7939592,3.73880718 63.8737837,4.81703341 65.2059747,4.81703341 C66.5381657,4.81703341 67.6179902,3.73880718 67.6179902,2.40932455 C67.6179902,1.07951219 66.5381657,0.00161569069 65.2059747,0.00161569069" id="Fill-122"></path>
            <path d="M65.2059747,20.8955299 C63.8737837,20.8955299 62.7939592,21.9734264 62.7939592,23.3032387 C62.7939592,24.6327213 63.8737837,25.7109476 65.2059747,25.7109476 C66.5381657,25.7109476 67.6179902,24.6327213 67.6179902,23.3032387 C67.6179902,21.9734264 66.5381657,20.8955299 65.2059747,20.8955299" id="Fill-125"></path>
            <path d="M65.2059747,41.789444 C63.8737837,41.789444 62.7939592,42.8673405 62.7939592,44.1971529 C62.7939592,45.5269652 63.8737837,46.6048618 65.2059747,46.6048618 C66.5381657,46.6048618 67.6179902,45.5269652 67.6179902,44.1971529 C67.6179902,42.8673405 66.5381657,41.789444 65.2059747,41.789444" id="Fill-127"></path>
            <path d="M65.2059747,62.6833582 C63.8737837,62.6833582 62.7939592,63.7615844 62.7939592,65.0910671 C62.7939592,66.4208794 63.8737837,67.4987759 65.2059747,67.4987759 C66.5381657,67.4987759 67.6179902,66.4208794 67.6179902,65.0910671 C67.6179902,63.7615844 66.5381657,62.6833582 65.2059747,62.6833582" id="Fill-129"></path>
            <path d="M65.2059747,83.5774372 C63.8737837,83.5774372 62.7939592,84.6553337 62.7939592,85.9851461 C62.7939592,87.3146287 63.8737837,88.392855 65.2059747,88.392855 C66.5381657,88.392855 67.6179902,87.3146287 67.6179902,85.9851461 C67.6179902,84.6553337 66.5381657,83.5774372 65.2059747,83.5774372" id="Fill-131"></path>
            <path d="M65.2059747,104.471351 C63.8737837,104.471351 62.7939592,105.549578 62.7939592,106.87906 C62.7939592,108.208873 63.8737837,109.286769 65.2059747,109.286769 C66.5381657,109.286769 67.6179902,108.208873 67.6179902,106.87906 C67.6179902,105.549578 66.5381657,104.471351 65.2059747,104.471351" id="Fill-133"></path>
            <path d="M65.2059747,125.365266 C63.8737837,125.365266 62.7939592,126.443492 62.7939592,127.772974 C62.7939592,129.102787 63.8737837,130.180683 65.2059747,130.180683 C66.5381657,130.180683 67.6179902,129.102787 67.6179902,127.772974 C67.6179902,126.443492 66.5381657,125.365266 65.2059747,125.365266" id="Fill-135"></path>
            <path d="M65.2059747,146.25918 C63.8737837,146.25918 62.7939592,147.337406 62.7939592,148.666889 C62.7939592,149.996701 63.8737837,151.074597 65.2059747,151.074597 C66.5381657,151.074597 67.6179902,149.996701 67.6179902,148.666889 C67.6179902,147.337406 66.5381657,146.25918 65.2059747,146.25918" id="Fill-137"></path>
            <path d="M65.2059747,167.153127 C63.8737837,167.153127 62.7939592,168.231353 62.7939592,169.561165 C62.7939592,170.890648 63.8737837,171.968545 65.2059747,171.968545 C66.5381657,171.968545 67.6179902,170.890648 67.6179902,169.561165 C67.6179902,168.231353 66.5381657,167.153127 65.2059747,167.153127" id="Fill-139"></path>
            <path d="M65.2059747,188.047041 C63.8737837,188.047041 62.7939592,189.125267 62.7939592,190.45508 C62.7939592,191.784562 63.8737837,192.862459 65.2059747,192.862459 C66.5381657,192.862459 67.6179902,191.784562 67.6179902,190.45508 C67.6179902,189.125267 66.5381657,188.047041 65.2059747,188.047041" id="Fill-141"></path>
            <path d="M65.2059747,208.941285 C63.8737837,208.941285 62.7939592,210.019181 62.7939592,211.348994 C62.7939592,212.678476 63.8737837,213.756703 65.2059747,213.756703 C66.5381657,213.756703 67.6179902,212.678476 67.6179902,211.348994 C67.6179902,210.019181 66.5381657,208.941285 65.2059747,208.941285" id="Fill-143"></path>
            <path d="M65.2059747,229.835199 C63.8737837,229.835199 62.7939592,230.913096 62.7939592,232.242908 C62.7939592,233.572391 63.8737837,234.650617 65.2059747,234.650617 C66.5381657,234.650617 67.6179902,233.572391 67.6179902,232.242908 C67.6179902,230.913096 66.5381657,229.835199 65.2059747,229.835199" id="Fill-145"></path>
            <path d="M65.2059747,250.729113 C63.8737837,250.729113 62.7939592,251.80701 62.7939592,253.136822 C62.7939592,254.466635 63.8737837,255.544531 65.2059747,255.544531 C66.5381657,255.544531 67.6179902,254.466635 67.6179902,253.136822 C67.6179902,251.80701 66.5381657,250.729113 65.2059747,250.729113" id="Fill-147"></path>
            <path d="M65.2059747,271.623027 C63.8737837,271.623027 62.7939592,272.701254 62.7939592,274.030736 C62.7939592,275.360549 63.8737837,276.438445 65.2059747,276.438445 C66.5381657,276.438445 67.6179902,275.360549 67.6179902,274.030736 C67.6179902,272.701254 66.5381657,271.623027 65.2059747,271.623027" id="Fill-149"></path>
            <path d="M65.2059747,292.516942 C63.8737837,292.516942 62.7939592,293.595168 62.7939592,294.92465 C62.7939592,296.254463 63.8737837,297.332359 65.2059747,297.332359 C66.5381657,297.332359 67.6179902,296.254463 67.6179902,294.92465 C67.6179902,293.595168 66.5381657,292.516942 65.2059747,292.516942" id="Fill-151"></path>
            <path d="M65.2059747,310.113528 C63.8737837,310.113528 62.7939592,311.191754 62.7939592,312.521237 C62.7939592,313.851049 63.8737837,314.928946 65.2059747,314.928946 C66.5381657,314.928946 67.6179902,313.851049 67.6179902,312.521237 C67.6179902,311.191754 66.5381657,310.113528 65.2059747,310.113528" id="Fill-153"></path>
            <path d="M65.2059747,327.710114 C63.8737837,327.710114 62.7939592,328.78834 62.7939592,330.118153 C62.7939592,331.447635 63.8737837,332.525532 65.2059747,332.525532 C66.5381657,332.525532 67.6179902,331.447635 67.6179902,330.118153 C67.6179902,328.78834 66.5381657,327.710114 65.2059747,327.710114" id="Fill-155"></path>
            <path d="M86.1372614,0.00161569069 C84.8050705,0.00161569069 83.7252459,1.07951219 83.7252459,2.40932455 C83.7252459,3.73880718 84.8050705,4.81703341 86.1372614,4.81703341 C87.4694524,4.81703341 88.5492769,3.73880718 88.5492769,2.40932455 C88.5492769,1.07951219 87.4694524,0.00161569069 86.1372614,0.00161569069" id="Fill-157"></path>
            <path d="M86.1372614,20.8955299 C84.8050705,20.8955299 83.7252459,21.9734264 83.7252459,23.3032387 C83.7252459,24.6327213 84.8050705,25.7109476 86.1372614,25.7109476 C87.4694524,25.7109476 88.5492769,24.6327213 88.5492769,23.3032387 C88.5492769,21.9734264 87.4694524,20.8955299 86.1372614,20.8955299" id="Fill-160"></path>
            <path d="M86.1372614,41.789444 C84.8050705,41.789444 83.7252459,42.8673405 83.7252459,44.1971529 C83.7252459,45.5269652 84.8050705,46.6048618 86.1372614,46.6048618 C87.4694524,46.6048618 88.5492769,45.5269652 88.5492769,44.1971529 C88.5492769,42.8673405 87.4694524,41.789444 86.1372614,41.789444" id="Fill-162"></path>
            <path d="M86.1372614,62.6833582 C84.8050705,62.6833582 83.7252459,63.7615844 83.7252459,65.0910671 C83.7252459,66.4208794 84.8050705,67.4987759 86.1372614,67.4987759 C87.4694524,67.4987759 88.5492769,66.4208794 88.5492769,65.0910671 C88.5492769,63.7615844 87.4694524,62.6833582 86.1372614,62.6833582" id="Fill-164"></path>
            <path d="M86.1372614,83.5774372 C84.8050705,83.5774372 83.7252459,84.6553337 83.7252459,85.9851461 C83.7252459,87.3146287 84.8050705,88.392855 86.1372614,88.392855 C87.4694524,88.392855 88.5492769,87.3146287 88.5492769,85.9851461 C88.5492769,84.6553337 87.4694524,83.5774372 86.1372614,83.5774372" id="Fill-166"></path>
            <path d="M86.1372614,104.471351 C84.8050705,104.471351 83.7252459,105.549578 83.7252459,106.87906 C83.7252459,108.208873 84.8050705,109.286769 86.1372614,109.286769 C87.4694524,109.286769 88.5492769,108.208873 88.5492769,106.87906 C88.5492769,105.549578 87.4694524,104.471351 86.1372614,104.471351" id="Fill-168"></path>
            <path d="M86.1372614,125.365266 C84.8050705,125.365266 83.7252459,126.443492 83.7252459,127.772974 C83.7252459,129.102787 84.8050705,130.180683 86.1372614,130.180683 C87.4694524,130.180683 88.5492769,129.102787 88.5492769,127.772974 C88.5492769,126.443492 87.4694524,125.365266 86.1372614,125.365266" id="Fill-170"></path>
            <path d="M86.1372614,146.25918 C84.8050705,146.25918 83.7252459,147.337406 83.7252459,148.666889 C83.7252459,149.996701 84.8050705,151.074597 86.1372614,151.074597 C87.4694524,151.074597 88.5492769,149.996701 88.5492769,148.666889 C88.5492769,147.337406 87.4694524,146.25918 86.1372614,146.25918" id="Fill-172"></path>
            <path d="M86.1372614,167.153127 C84.8050705,167.153127 83.7252459,168.231353 83.7252459,169.561165 C83.7252459,170.890648 84.8050705,171.968545 86.1372614,171.968545 C87.4694524,171.968545 88.5492769,170.890648 88.5492769,169.561165 C88.5492769,168.231353 87.4694524,167.153127 86.1372614,167.153127" id="Fill-174"></path>
            <path d="M86.1372614,188.047041 C84.8050705,188.047041 83.7252459,189.125267 83.7252459,190.45508 C83.7252459,191.784562 84.8050705,192.862459 86.1372614,192.862459 C87.4694524,192.862459 88.5492769,191.784562 88.5492769,190.45508 C88.5492769,189.125267 87.4694524,188.047041 86.1372614,188.047041" id="Fill-176"></path>
            <path d="M86.1372614,208.941285 C84.8050705,208.941285 83.7252459,210.019181 83.7252459,211.348994 C83.7252459,212.678476 84.8050705,213.756703 86.1372614,213.756703 C87.4694524,213.756703 88.5492769,212.678476 88.5492769,211.348994 C88.5492769,210.019181 87.4694524,208.941285 86.1372614,208.941285" id="Fill-178"></path>
            <path d="M86.1372614,229.835199 C84.8050705,229.835199 83.7252459,230.913096 83.7252459,232.242908 C83.7252459,233.572391 84.8050705,234.650617 86.1372614,234.650617 C87.4694524,234.650617 88.5492769,233.572391 88.5492769,232.242908 C88.5492769,230.913096 87.4694524,229.835199 86.1372614,229.835199" id="Fill-180"></path>
            <path d="M86.1372614,250.729113 C84.8050705,250.729113 83.7252459,251.80701 83.7252459,253.136822 C83.7252459,254.466635 84.8050705,255.544531 86.1372614,255.544531 C87.4694524,255.544531 88.5492769,254.466635 88.5492769,253.136822 C88.5492769,251.80701 87.4694524,250.729113 86.1372614,250.729113" id="Fill-182"></path>
            <path d="M86.1372614,271.623027 C84.8050705,271.623027 83.7252459,272.701254 83.7252459,274.030736 C83.7252459,275.360549 84.8050705,276.438445 86.1372614,276.438445 C87.4694524,276.438445 88.5492769,275.360549 88.5492769,274.030736 C88.5492769,272.701254 87.4694524,271.623027 86.1372614,271.623027" id="Fill-184"></path>
            <path d="M86.1372614,292.516942 C84.8050705,292.516942 83.7252459,293.595168 83.7252459,294.92465 C83.7252459,296.254463 84.8050705,297.332359 86.1372614,297.332359 C87.4694524,297.332359 88.5492769,296.254463 88.5492769,294.92465 C88.5492769,293.595168 87.4694524,292.516942 86.1372614,292.516942" id="Fill-186"></path>
            <path d="M86.1372614,310.113528 C84.8050705,310.113528 83.7252459,311.191754 83.7252459,312.521237 C83.7252459,313.851049 84.8050705,314.928946 86.1372614,314.928946 C87.4694524,314.928946 88.5492769,313.851049 88.5492769,312.521237 C88.5492769,311.191754 87.4694524,310.113528 86.1372614,310.113528" id="Fill-188"></path>
            <path d="M86.1372614,327.710114 C84.8050705,327.710114 83.7252459,328.78834 83.7252459,330.118153 C83.7252459,331.447635 84.8050705,332.525532 86.1372614,332.525532 C87.4694524,332.525532 88.5492769,331.447635 88.5492769,330.118153 C88.5492769,328.78834 87.4694524,327.710114 86.1372614,327.710114" id="Fill-190"></path>
            <path d="M107.068713,0.00161569069 C105.736522,0.00161569069 104.656698,1.07951219 104.656698,2.40932455 C104.656698,3.73880718 105.736522,4.81703341 107.068713,4.81703341 C108.400904,4.81703341 109.480729,3.73880718 109.480729,2.40932455 C109.480729,1.07951219 108.400904,0.00161569069 107.068713,0.00161569069" id="Fill-192"></path>
            <path d="M107.068713,20.8955299 C105.736522,20.8955299 104.656698,21.9734264 104.656698,23.3032387 C104.656698,24.6327213 105.736522,25.7109476 107.068713,25.7109476 C108.400904,25.7109476 109.480729,24.6327213 109.480729,23.3032387 C109.480729,21.9734264 108.400904,20.8955299 107.068713,20.8955299" id="Fill-195"></path>
            <path d="M107.068713,41.789444 C105.736522,41.789444 104.656698,42.8673405 104.656698,44.1971529 C104.656698,45.5269652 105.736522,46.6048618 107.068713,46.6048618 C108.400904,46.6048618 109.480729,45.5269652 109.480729,44.1971529 C109.480729,42.8673405 108.400904,41.789444 107.068713,41.789444" id="Fill-197"></path>
            <path d="M107.068713,62.6833582 C105.736522,62.6833582 104.656698,63.7615844 104.656698,65.0910671 C104.656698,66.4208794 105.736522,67.4987759 107.068713,67.4987759 C108.400904,67.4987759 109.480729,66.4208794 109.480729,65.0910671 C109.480729,63.7615844 108.400904,62.6833582 107.068713,62.6833582" id="Fill-199"></path>
            <path d="M107.068713,83.5774372 C105.736522,83.5774372 104.656698,84.6553337 104.656698,85.9851461 C104.656698,87.3146287 105.736522,88.392855 107.068713,88.392855 C108.400904,88.392855 109.480729,87.3146287 109.480729,85.9851461 C109.480729,84.6553337 108.400904,83.5774372 107.068713,83.5774372" id="Fill-201"></path>
            <path d="M107.068713,104.471351 C105.736522,104.471351 104.656698,105.549578 104.656698,106.87906 C104.656698,108.208873 105.736522,109.286769 107.068713,109.286769 C108.400904,109.286769 109.480729,108.208873 109.480729,106.87906 C109.480729,105.549578 108.400904,104.471351 107.068713,104.471351" id="Fill-203"></path>
            <path d="M107.068713,125.365266 C105.736522,125.365266 104.656698,126.443492 104.656698,127.772974 C104.656698,129.102787 105.736522,130.180683 107.068713,130.180683 C108.400904,130.180683 109.480729,129.102787 109.480729,127.772974 C109.480729,126.443492 108.400904,125.365266 107.068713,125.365266" id="Fill-205"></path>
            <path d="M107.068713,146.25918 C105.736522,146.25918 104.656698,147.337406 104.656698,148.666889 C104.656698,149.996701 105.736522,151.074597 107.068713,151.074597 C108.400904,151.074597 109.480729,149.996701 109.480729,148.666889 C109.480729,147.337406 108.400904,146.25918 107.068713,146.25918" id="Fill-207"></path>
            <path d="M107.068713,167.153127 C105.736522,167.153127 104.656698,168.231353 104.656698,169.561165 C104.656698,170.890648 105.736522,171.968545 107.068713,171.968545 C108.400904,171.968545 109.480729,170.890648 109.480729,169.561165 C109.480729,168.231353 108.400904,167.153127 107.068713,167.153127" id="Fill-209"></path>
            <path d="M107.068713,188.047041 C105.736522,188.047041 104.656698,189.125267 104.656698,190.45508 C104.656698,191.784562 105.736522,192.862459 107.068713,192.862459 C108.400904,192.862459 109.480729,191.784562 109.480729,190.45508 C109.480729,189.125267 108.400904,188.047041 107.068713,188.047041" id="Fill-211"></path>
            <path d="M107.068713,208.941285 C105.736522,208.941285 104.656698,210.019181 104.656698,211.348994 C104.656698,212.678476 105.736522,213.756703 107.068713,213.756703 C108.400904,213.756703 109.480729,212.678476 109.480729,211.348994 C109.480729,210.019181 108.400904,208.941285 107.068713,208.941285" id="Fill-213"></path>
            <path d="M107.068713,229.835199 C105.736522,229.835199 104.656698,230.913096 104.656698,232.242908 C104.656698,233.572391 105.736522,234.650617 107.068713,234.650617 C108.400904,234.650617 109.480729,233.572391 109.480729,232.242908 C109.480729,230.913096 108.400904,229.835199 107.068713,229.835199" id="Fill-215"></path>
            <path d="M107.068713,250.729113 C105.736522,250.729113 104.656698,251.80701 104.656698,253.136822 C104.656698,254.466635 105.736522,255.544531 107.068713,255.544531 C108.400904,255.544531 109.480729,254.466635 109.480729,253.136822 C109.480729,251.80701 108.400904,250.729113 107.068713,250.729113" id="Fill-217"></path>
            <path d="M107.068713,271.623027 C105.736522,271.623027 104.656698,272.701254 104.656698,274.030736 C104.656698,275.360549 105.736522,276.438445 107.068713,276.438445 C108.400904,276.438445 109.480729,275.360549 109.480729,274.030736 C109.480729,272.701254 108.400904,271.623027 107.068713,271.623027" id="Fill-219"></path>
            <path d="M107.068713,292.516942 C105.736522,292.516942 104.656698,293.595168 104.656698,294.92465 C104.656698,296.254463 105.736522,297.332359 107.068713,297.332359 C108.400904,297.332359 109.480729,296.254463 109.480729,294.92465 C109.480729,293.595168 108.400904,292.516942 107.068713,292.516942" id="Fill-221"></path>
            <path d="M107.068713,310.113528 C105.736522,310.113528 104.656698,311.191754 104.656698,312.521237 C104.656698,313.851049 105.736522,314.928946 107.068713,314.928946 C108.400904,314.928946 109.480729,313.851049 109.480729,312.521237 C109.480729,311.191754 108.400904,310.113528 107.068713,310.113528" id="Fill-223"></path>
            <path d="M107.068713,327.710114 C105.736522,327.710114 104.656698,328.78834 104.656698,330.118153 C104.656698,331.447635 105.736522,332.525532 107.068713,332.525532 C108.400904,332.525532 109.480729,331.447635 109.480729,330.118153 C109.480729,328.78834 108.400904,327.710114 107.068713,327.710114" id="Fill-225"></path>
            <path d="M128,0.00161569069 C126.667809,0.00161569069 125.587985,1.07951219 125.587985,2.40932455 C125.587985,3.73880718 126.667809,4.81703341 128,4.81703341 C129.332191,4.81703341 130.412015,3.73880718 130.412015,2.40932455 C130.412015,1.07951219 129.332191,0.00161569069 128,0.00161569069" id="Fill-227"></path>
            <path d="M128,20.8955299 C126.667809,20.8955299 125.587985,21.9734264 125.587985,23.3032387 C125.587985,24.6327213 126.667809,25.7109476 128,25.7109476 C129.332191,25.7109476 130.412015,24.6327213 130.412015,23.3032387 C130.412015,21.9734264 129.332191,20.8955299 128,20.8955299" id="Fill-230"></path>
            <path d="M128,41.789444 C126.667809,41.789444 125.587985,42.8673405 125.587985,44.1971529 C125.587985,45.5269652 126.667809,46.6048618 128,46.6048618 C129.332191,46.6048618 130.412015,45.5269652 130.412015,44.1971529 C130.412015,42.8673405 129.332191,41.789444 128,41.789444" id="Fill-232"></path>
            <path d="M128,62.6833582 C126.667809,62.6833582 125.587985,63.7615844 125.587985,65.0910671 C125.587985,66.4208794 126.667809,67.4987759 128,67.4987759 C129.332191,67.4987759 130.412015,66.4208794 130.412015,65.0910671 C130.412015,63.7615844 129.332191,62.6833582 128,62.6833582" id="Fill-234"></path>
            <path d="M128,83.5774372 C126.667809,83.5774372 125.587985,84.6553337 125.587985,85.9851461 C125.587985,87.3146287 126.667809,88.392855 128,88.392855 C129.332191,88.392855 130.412015,87.3146287 130.412015,85.9851461 C130.412015,84.6553337 129.332191,83.5774372 128,83.5774372" id="Fill-236"></path>
            <path d="M128,104.471351 C126.667809,104.471351 125.587985,105.549578 125.587985,106.87906 C125.587985,108.208873 126.667809,109.286769 128,109.286769 C129.332191,109.286769 130.412015,108.208873 130.412015,106.87906 C130.412015,105.549578 129.332191,104.471351 128,104.471351" id="Fill-238"></path>
            <path d="M128,125.365266 C126.667809,125.365266 125.587985,126.443492 125.587985,127.772974 C125.587985,129.102787 126.667809,130.180683 128,130.180683 C129.332191,130.180683 130.412015,129.102787 130.412015,127.772974 C130.412015,126.443492 129.332191,125.365266 128,125.365266" id="Fill-240"></path>
            <path d="M128,146.25918 C126.667809,146.25918 125.587985,147.337406 125.587985,148.666889 C125.587985,149.996701 126.667809,151.074597 128,151.074597 C129.332191,151.074597 130.412015,149.996701 130.412015,148.666889 C130.412015,147.337406 129.332191,146.25918 128,146.25918" id="Fill-242"></path>
            <path d="M128,167.153127 C126.667809,167.153127 125.587985,168.231353 125.587985,169.561165 C125.587985,170.890648 126.667809,171.968545 128,171.968545 C129.332191,171.968545 130.412015,170.890648 130.412015,169.561165 C130.412015,168.231353 129.332191,167.153127 128,167.153127" id="Fill-244"></path>
            <path d="M128,188.047041 C126.667809,188.047041 125.587985,189.125267 125.587985,190.45508 C125.587985,191.784562 126.667809,192.862459 128,192.862459 C129.332191,192.862459 130.412015,191.784562 130.412015,190.45508 C130.412015,189.125267 129.332191,188.047041 128,188.047041" id="Fill-246"></path>
            <path d="M128,208.941285 C126.667809,208.941285 125.587985,210.019181 125.587985,211.348994 C125.587985,212.678476 126.667809,213.756703 128,213.756703 C129.332191,213.756703 130.412015,212.678476 130.412015,211.348994 C130.412015,210.019181 129.332191,208.941285 128,208.941285" id="Fill-248"></path>
            <path d="M128,229.835199 C126.667809,229.835199 125.587985,230.913096 125.587985,232.242908 C125.587985,233.572391 126.667809,234.650617 128,234.650617 C129.332191,234.650617 130.412015,233.572391 130.412015,232.242908 C130.412015,230.913096 129.332191,229.835199 128,229.835199" id="Fill-250"></path>
            <path d="M128,250.729113 C126.667809,250.729113 125.587985,251.80701 125.587985,253.136822 C125.587985,254.466635 126.667809,255.544531 128,255.544531 C129.332191,255.544531 130.412015,254.466635 130.412015,253.136822 C130.412015,251.80701 129.332191,250.729113 128,250.729113" id="Fill-252"></path>
            <path d="M128,271.623027 C126.667809,271.623027 125.587985,272.701254 125.587985,274.030736 C125.587985,275.360549 126.667809,276.438445 128,276.438445 C129.332191,276.438445 130.412015,275.360549 130.412015,274.030736 C130.412015,272.701254 129.332191,271.623027 128,271.623027" id="Fill-254"></path>
            <path d="M128,292.516942 C126.667809,292.516942 125.587985,293.595168 125.587985,294.92465 C125.587985,296.254463 126.667809,297.332359 128,297.332359 C129.332191,297.332359 130.412015,296.254463 130.412015,294.92465 C130.412015,293.595168 129.332191,292.516942 128,292.516942" id="Fill-256"></path>
            <path d="M128,310.113528 C126.667809,310.113528 125.587985,311.191754 125.587985,312.521237 C125.587985,313.851049 126.667809,314.928946 128,314.928946 C129.332191,314.928946 130.412015,313.851049 130.412015,312.521237 C130.412015,311.191754 129.332191,310.113528 128,310.113528" id="Fill-258"></path>
            <path d="M128,327.710114 C126.667809,327.710114 125.587985,328.78834 125.587985,330.118153 C125.587985,331.447635 126.667809,332.525532 128,332.525532 C129.332191,332.525532 130.412015,331.447635 130.412015,330.118153 C130.412015,328.78834 129.332191,327.710114 128,327.710114" id="Fill-260"></path>
            <path d="M148.931287,0.00161569069 C147.599426,0.00161569069 146.519271,1.07951219 146.519271,2.40932455 C146.519271,3.73880718 147.599426,4.81703341 148.931287,4.81703341 C150.263478,4.81703341 151.343302,3.73880718 151.343302,2.40932455 C151.343302,1.07951219 150.263478,0.00161569069 148.931287,0.00161569069" id="Fill-262"></path>
            <path d="M148.931287,20.8955299 C147.599426,20.8955299 146.519271,21.9734264 146.519271,23.3032387 C146.519271,24.6327213 147.599426,25.7109476 148.931287,25.7109476 C150.263478,25.7109476 151.343302,24.6327213 151.343302,23.3032387 C151.343302,21.9734264 150.263478,20.8955299 148.931287,20.8955299" id="Fill-265"></path>
            <path d="M148.931287,41.789444 C147.599426,41.789444 146.519271,42.8673405 146.519271,44.1971529 C146.519271,45.5269652 147.599426,46.6048618 148.931287,46.6048618 C150.263478,46.6048618 151.343302,45.5269652 151.343302,44.1971529 C151.343302,42.8673405 150.263478,41.789444 148.931287,41.789444" id="Fill-267"></path>
            <path d="M148.931287,62.6833582 C147.599426,62.6833582 146.519271,63.7615844 146.519271,65.0910671 C146.519271,66.4208794 147.599426,67.4987759 148.931287,67.4987759 C150.263478,67.4987759 151.343302,66.4208794 151.343302,65.0910671 C151.343302,63.7615844 150.263478,62.6833582 148.931287,62.6833582" id="Fill-269"></path>
            <path d="M148.931287,83.5774372 C147.599426,83.5774372 146.519271,84.6553337 146.519271,85.9851461 C146.519271,87.3146287 147.599426,88.392855 148.931287,88.392855 C150.263478,88.392855 151.343302,87.3146287 151.343302,85.9851461 C151.343302,84.6553337 150.263478,83.5774372 148.931287,83.5774372" id="Fill-271"></path>
            <path d="M148.931287,104.471351 C147.599426,104.471351 146.519271,105.549578 146.519271,106.87906 C146.519271,108.208873 147.599426,109.286769 148.931287,109.286769 C150.263478,109.286769 151.343302,108.208873 151.343302,106.87906 C151.343302,105.549578 150.263478,104.471351 148.931287,104.471351" id="Fill-273"></path>
            <path d="M148.931287,125.365266 C147.599426,125.365266 146.519271,126.443492 146.519271,127.772974 C146.519271,129.102787 147.599426,130.180683 148.931287,130.180683 C150.263478,130.180683 151.343302,129.102787 151.343302,127.772974 C151.343302,126.443492 150.263478,125.365266 148.931287,125.365266" id="Fill-275"></path>
            <path d="M148.931287,146.25918 C147.599426,146.25918 146.519271,147.337406 146.519271,148.666889 C146.519271,149.996701 147.599426,151.074597 148.931287,151.074597 C150.263478,151.074597 151.343302,149.996701 151.343302,148.666889 C151.343302,147.337406 150.263478,146.25918 148.931287,146.25918" id="Fill-277"></path>
            <path d="M148.931287,167.153127 C147.599426,167.153127 146.519271,168.231353 146.519271,169.561165 C146.519271,170.890648 147.599426,171.968545 148.931287,171.968545 C150.263478,171.968545 151.343302,170.890648 151.343302,169.561165 C151.343302,168.231353 150.263478,167.153127 148.931287,167.153127" id="Fill-279"></path>
            <path d="M148.931287,188.047041 C147.599426,188.047041 146.519271,189.125267 146.519271,190.45508 C146.519271,191.784562 147.599426,192.862459 148.931287,192.862459 C150.263478,192.862459 151.343302,191.784562 151.343302,190.45508 C151.343302,189.125267 150.263478,188.047041 148.931287,188.047041" id="Fill-281"></path>
            <path d="M148.931287,208.941285 C147.599426,208.941285 146.519271,210.019181 146.519271,211.348994 C146.519271,212.678476 147.599426,213.756703 148.931287,213.756703 C150.263478,213.756703 151.343302,212.678476 151.343302,211.348994 C151.343302,210.019181 150.263478,208.941285 148.931287,208.941285" id="Fill-283"></path>
            <path d="M148.931287,229.835199 C147.599426,229.835199 146.519271,230.913096 146.519271,232.242908 C146.519271,233.572391 147.599426,234.650617 148.931287,234.650617 C150.263478,234.650617 151.343302,233.572391 151.343302,232.242908 C151.343302,230.913096 150.263478,229.835199 148.931287,229.835199" id="Fill-285"></path>
            <path d="M148.931287,250.729113 C147.599426,250.729113 146.519271,251.80701 146.519271,253.136822 C146.519271,254.466635 147.599426,255.544531 148.931287,255.544531 C150.263478,255.544531 151.343302,254.466635 151.343302,253.136822 C151.343302,251.80701 150.263478,250.729113 148.931287,250.729113" id="Fill-287"></path>
            <path d="M148.931287,271.623027 C147.599426,271.623027 146.519271,272.701254 146.519271,274.030736 C146.519271,275.360549 147.599426,276.438445 148.931287,276.438445 C150.263478,276.438445 151.343302,275.360549 151.343302,274.030736 C151.343302,272.701254 150.263478,271.623027 148.931287,271.623027" id="Fill-289"></path>
            <path d="M148.931287,292.516942 C147.599426,292.516942 146.519271,293.595168 146.519271,294.92465 C146.519271,296.254463 147.599426,297.332359 148.931287,297.332359 C150.263478,297.332359 151.343302,296.254463 151.343302,294.92465 C151.343302,293.595168 150.263478,292.516942 148.931287,292.516942" id="Fill-291"></path>
            <path d="M148.931287,310.113528 C147.599426,310.113528 146.519271,311.191754 146.519271,312.521237 C146.519271,313.851049 147.599426,314.928946 148.931287,314.928946 C150.263478,314.928946 151.343302,313.851049 151.343302,312.521237 C151.343302,311.191754 150.263478,310.113528 148.931287,310.113528" id="Fill-293"></path>
            <path d="M148.931287,327.710114 C147.599426,327.710114 146.519271,328.78834 146.519271,330.118153 C146.519271,331.447635 147.599426,332.525532 148.931287,332.525532 C150.263478,332.525532 151.343302,331.447635 151.343302,330.118153 C151.343302,328.78834 150.263478,327.710114 148.931287,327.710114" id="Fill-295"></path>
            <path d="M169.862573,0.00161569069 C168.530713,0.00161569069 167.450558,1.07951219 167.450558,2.40932455 C167.450558,3.73880718 168.530713,4.81703341 169.862573,4.81703341 C171.194764,4.81703341 172.274589,3.73880718 172.274589,2.40932455 C172.274589,1.07951219 171.194764,0.00161569069 169.862573,0.00161569069" id="Fill-297"></path>
            <path d="M169.862573,20.8955299 C168.530713,20.8955299 167.450558,21.9734264 167.450558,23.3032387 C167.450558,24.6327213 168.530713,25.7109476 169.862573,25.7109476 C171.194764,25.7109476 172.274589,24.6327213 172.274589,23.3032387 C172.274589,21.9734264 171.194764,20.8955299 169.862573,20.8955299" id="Fill-300"></path>
            <path d="M169.862573,41.789444 C168.530713,41.789444 167.450558,42.8673405 167.450558,44.1971529 C167.450558,45.5269652 168.530713,46.6048618 169.862573,46.6048618 C171.194764,46.6048618 172.274589,45.5269652 172.274589,44.1971529 C172.274589,42.8673405 171.194764,41.789444 169.862573,41.789444" id="Fill-302"></path>
            <path d="M169.862573,62.6833582 C168.530713,62.6833582 167.450558,63.7615844 167.450558,65.0910671 C167.450558,66.4208794 168.530713,67.4987759 169.862573,67.4987759 C171.194764,67.4987759 172.274589,66.4208794 172.274589,65.0910671 C172.274589,63.7615844 171.194764,62.6833582 169.862573,62.6833582" id="Fill-304"></path>
            <path d="M169.862573,83.5774372 C168.530713,83.5774372 167.450558,84.6553337 167.450558,85.9851461 C167.450558,87.3146287 168.530713,88.392855 169.862573,88.392855 C171.194764,88.392855 172.274589,87.3146287 172.274589,85.9851461 C172.274589,84.6553337 171.194764,83.5774372 169.862573,83.5774372" id="Fill-306"></path>
            <path d="M169.862573,104.471351 C168.530713,104.471351 167.450558,105.549578 167.450558,106.87906 C167.450558,108.208873 168.530713,109.286769 169.862573,109.286769 C171.194764,109.286769 172.274589,108.208873 172.274589,106.87906 C172.274589,105.549578 171.194764,104.471351 169.862573,104.471351" id="Fill-308"></path>
            <path d="M169.862573,125.365266 C168.530713,125.365266 167.450558,126.443492 167.450558,127.772974 C167.450558,129.102787 168.530713,130.180683 169.862573,130.180683 C171.194764,130.180683 172.274589,129.102787 172.274589,127.772974 C172.274589,126.443492 171.194764,125.365266 169.862573,125.365266" id="Fill-310"></path>
            <path d="M169.862573,146.25918 C168.530713,146.25918 167.450558,147.337406 167.450558,148.666889 C167.450558,149.996701 168.530713,151.074597 169.862573,151.074597 C171.194764,151.074597 172.274589,149.996701 172.274589,148.666889 C172.274589,147.337406 171.194764,146.25918 169.862573,146.25918" id="Fill-312"></path>
            <path d="M169.862573,167.153127 C168.530713,167.153127 167.450558,168.231353 167.450558,169.561165 C167.450558,170.890648 168.530713,171.968545 169.862573,171.968545 C171.194764,171.968545 172.274589,170.890648 172.274589,169.561165 C172.274589,168.231353 171.194764,167.153127 169.862573,167.153127" id="Fill-314"></path>
            <path d="M169.862573,188.047041 C168.530713,188.047041 167.450558,189.125267 167.450558,190.45508 C167.450558,191.784562 168.530713,192.862459 169.862573,192.862459 C171.194764,192.862459 172.274589,191.784562 172.274589,190.45508 C172.274589,189.125267 171.194764,188.047041 169.862573,188.047041" id="Fill-316"></path>
            <path d="M169.862573,208.941285 C168.530713,208.941285 167.450558,210.019181 167.450558,211.348994 C167.450558,212.678476 168.530713,213.756703 169.862573,213.756703 C171.194764,213.756703 172.274589,212.678476 172.274589,211.348994 C172.274589,210.019181 171.194764,208.941285 169.862573,208.941285" id="Fill-318"></path>
            <path d="M169.862573,229.835199 C168.530713,229.835199 167.450558,230.913096 167.450558,232.242908 C167.450558,233.572391 168.530713,234.650617 169.862573,234.650617 C171.194764,234.650617 172.274589,233.572391 172.274589,232.242908 C172.274589,230.913096 171.194764,229.835199 169.862573,229.835199" id="Fill-320"></path>
            <path d="M169.862573,250.729113 C168.530713,250.729113 167.450558,251.80701 167.450558,253.136822 C167.450558,254.466635 168.530713,255.544531 169.862573,255.544531 C171.194764,255.544531 172.274589,254.466635 172.274589,253.136822 C172.274589,251.80701 171.194764,250.729113 169.862573,250.729113" id="Fill-322"></path>
            <path d="M169.862573,271.623027 C168.530713,271.623027 167.450558,272.701254 167.450558,274.030736 C167.450558,275.360549 168.530713,276.438445 169.862573,276.438445 C171.194764,276.438445 172.274589,275.360549 172.274589,274.030736 C172.274589,272.701254 171.194764,271.623027 169.862573,271.623027" id="Fill-324"></path>
            <path d="M169.862573,292.516942 C168.530713,292.516942 167.450558,293.595168 167.450558,294.92465 C167.450558,296.254463 168.530713,297.332359 169.862573,297.332359 C171.194764,297.332359 172.274589,296.254463 172.274589,294.92465 C172.274589,293.595168 171.194764,292.516942 169.862573,292.516942" id="Fill-326"></path>
            <path d="M169.862573,310.113528 C168.530713,310.113528 167.450558,311.191754 167.450558,312.521237 C167.450558,313.851049 168.530713,314.928946 169.862573,314.928946 C171.194764,314.928946 172.274589,313.851049 172.274589,312.521237 C172.274589,311.191754 171.194764,310.113528 169.862573,310.113528" id="Fill-328"></path>
            <path d="M169.862573,327.710114 C168.530713,327.710114 167.450558,328.78834 167.450558,330.118153 C167.450558,331.447635 168.530713,332.525532 169.862573,332.525532 C171.194764,332.525532 172.274589,331.447635 172.274589,330.118153 C172.274589,328.78834 171.194764,327.710114 169.862573,327.710114" id="Fill-330"></path>
            <path d="M190.79386,0.00161569069 C189.461999,0.00161569069 188.381845,1.07951219 188.381845,2.40932455 C188.381845,3.73880718 189.461999,4.81703341 190.79386,4.81703341 C192.126051,4.81703341 193.206206,3.73880718 193.206206,2.40932455 C193.206206,1.07951219 192.126051,0.00161569069 190.79386,0.00161569069" id="Fill-332"></path>
            <path d="M190.79386,20.8955299 C189.461999,20.8955299 188.381845,21.9734264 188.381845,23.3032387 C188.381845,24.6327213 189.461999,25.7109476 190.79386,25.7109476 C192.126051,25.7109476 193.206206,24.6327213 193.206206,23.3032387 C193.206206,21.9734264 192.126051,20.8955299 190.79386,20.8955299" id="Fill-335"></path>
            <path d="M190.79386,41.789444 C189.461999,41.789444 188.381845,42.8673405 188.381845,44.1971529 C188.381845,45.5269652 189.461999,46.6048618 190.79386,46.6048618 C192.126051,46.6048618 193.206206,45.5269652 193.206206,44.1971529 C193.206206,42.8673405 192.126051,41.789444 190.79386,41.789444" id="Fill-337"></path>
            <path d="M190.79386,62.6833582 C189.461999,62.6833582 188.381845,63.7615844 188.381845,65.0910671 C188.381845,66.4208794 189.461999,67.4987759 190.79386,67.4987759 C192.126051,67.4987759 193.206206,66.4208794 193.206206,65.0910671 C193.206206,63.7615844 192.126051,62.6833582 190.79386,62.6833582" id="Fill-339"></path>
            <path d="M190.79386,83.5774372 C189.461999,83.5774372 188.381845,84.6553337 188.381845,85.9851461 C188.381845,87.3146287 189.461999,88.392855 190.79386,88.392855 C192.126051,88.392855 193.206206,87.3146287 193.206206,85.9851461 C193.206206,84.6553337 192.126051,83.5774372 190.79386,83.5774372" id="Fill-341"></path>
            <path d="M190.79386,104.471351 C189.461999,104.471351 188.381845,105.549578 188.381845,106.87906 C188.381845,108.208873 189.461999,109.286769 190.79386,109.286769 C192.126051,109.286769 193.206206,108.208873 193.206206,106.87906 C193.206206,105.549578 192.126051,104.471351 190.79386,104.471351" id="Fill-343"></path>
            <path d="M190.79386,125.365266 C189.461999,125.365266 188.381845,126.443492 188.381845,127.772974 C188.381845,129.102787 189.461999,130.180683 190.79386,130.180683 C192.126051,130.180683 193.206206,129.102787 193.206206,127.772974 C193.206206,126.443492 192.126051,125.365266 190.79386,125.365266" id="Fill-345"></path>
            <path d="M190.79386,146.25918 C189.461999,146.25918 188.381845,147.337406 188.381845,148.666889 C188.381845,149.996701 189.461999,151.074597 190.79386,151.074597 C192.126051,151.074597 193.206206,149.996701 193.206206,148.666889 C193.206206,147.337406 192.126051,146.25918 190.79386,146.25918" id="Fill-347"></path>
            <path d="M190.79386,167.153127 C189.461999,167.153127 188.381845,168.231353 188.381845,169.561165 C188.381845,170.890648 189.461999,171.968545 190.79386,171.968545 C192.126051,171.968545 193.206206,170.890648 193.206206,169.561165 C193.206206,168.231353 192.126051,167.153127 190.79386,167.153127" id="Fill-349"></path>
            <path d="M190.79386,188.047041 C189.461999,188.047041 188.381845,189.125267 188.381845,190.45508 C188.381845,191.784562 189.461999,192.862459 190.79386,192.862459 C192.126051,192.862459 193.206206,191.784562 193.206206,190.45508 C193.206206,189.125267 192.126051,188.047041 190.79386,188.047041" id="Fill-351"></path>
            <path d="M190.79386,208.941285 C189.461999,208.941285 188.381845,210.019181 188.381845,211.348994 C188.381845,212.678476 189.461999,213.756703 190.79386,213.756703 C192.126051,213.756703 193.206206,212.678476 193.206206,211.348994 C193.206206,210.019181 192.126051,208.941285 190.79386,208.941285" id="Fill-353"></path>
            <path d="M190.79386,229.835199 C189.461999,229.835199 188.381845,230.913096 188.381845,232.242908 C188.381845,233.572391 189.461999,234.650617 190.79386,234.650617 C192.126051,234.650617 193.206206,233.572391 193.206206,232.242908 C193.206206,230.913096 192.126051,229.835199 190.79386,229.835199" id="Fill-355"></path>
            <path d="M190.79386,250.729113 C189.461999,250.729113 188.381845,251.80701 188.381845,253.136822 C188.381845,254.466635 189.461999,255.544531 190.79386,255.544531 C192.126051,255.544531 193.206206,254.466635 193.206206,253.136822 C193.206206,251.80701 192.126051,250.729113 190.79386,250.729113" id="Fill-357"></path>
            <path d="M190.79386,271.623027 C189.461999,271.623027 188.381845,272.701254 188.381845,274.030736 C188.381845,275.360549 189.461999,276.438445 190.79386,276.438445 C192.126051,276.438445 193.206206,275.360549 193.206206,274.030736 C193.206206,272.701254 192.126051,271.623027 190.79386,271.623027" id="Fill-359"></path>
            <path d="M190.79386,292.516942 C189.461999,292.516942 188.381845,293.595168 188.381845,294.92465 C188.381845,296.254463 189.461999,297.332359 190.79386,297.332359 C192.126051,297.332359 193.206206,296.254463 193.206206,294.92465 C193.206206,293.595168 192.126051,292.516942 190.79386,292.516942" id="Fill-361"></path>
            <path d="M190.79386,310.113528 C189.461999,310.113528 188.381845,311.191754 188.381845,312.521237 C188.381845,313.851049 189.461999,314.928946 190.79386,314.928946 C192.126051,314.928946 193.206206,313.851049 193.206206,312.521237 C193.206206,311.191754 192.126051,310.113528 190.79386,310.113528" id="Fill-363"></path>
            <path d="M190.79386,327.710114 C189.461999,327.710114 188.381845,328.78834 188.381845,330.118153 C188.381845,331.447635 189.461999,332.525532 190.79386,332.525532 C192.126051,332.525532 193.206206,331.447635 193.206206,330.118153 C193.206206,328.78834 192.126051,327.710114 190.79386,327.710114" id="Fill-365"></path>
            <path d="M211.725477,0.00161569069 C210.393286,0.00161569069 209.313131,1.07951219 209.313131,2.40932455 C209.313131,3.73880718 210.393286,4.81703341 211.725477,4.81703341 C213.057338,4.81703341 214.137493,3.73880718 214.137493,2.40932455 C214.137493,1.07951219 213.057338,0.00161569069 211.725477,0.00161569069" id="Fill-367"></path>
            <path d="M211.725477,20.8955299 C210.393286,20.8955299 209.313131,21.9734264 209.313131,23.3032387 C209.313131,24.6327213 210.393286,25.7109476 211.725477,25.7109476 C213.057338,25.7109476 214.137493,24.6327213 214.137493,23.3032387 C214.137493,21.9734264 213.057338,20.8955299 211.725477,20.8955299" id="Fill-370"></path>
            <path d="M211.725477,41.789444 C210.393286,41.789444 209.313131,42.8673405 209.313131,44.1971529 C209.313131,45.5269652 210.393286,46.6048618 211.725477,46.6048618 C213.057338,46.6048618 214.137493,45.5269652 214.137493,44.1971529 C214.137493,42.8673405 213.057338,41.789444 211.725477,41.789444" id="Fill-372"></path>
            <path d="M211.725477,62.6833582 C210.393286,62.6833582 209.313131,63.7615844 209.313131,65.0910671 C209.313131,66.4208794 210.393286,67.4987759 211.725477,67.4987759 C213.057338,67.4987759 214.137493,66.4208794 214.137493,65.0910671 C214.137493,63.7615844 213.057338,62.6833582 211.725477,62.6833582" id="Fill-374"></path>
            <path d="M211.725477,83.5774372 C210.393286,83.5774372 209.313131,84.6553337 209.313131,85.9851461 C209.313131,87.3146287 210.393286,88.392855 211.725477,88.392855 C213.057338,88.392855 214.137493,87.3146287 214.137493,85.9851461 C214.137493,84.6553337 213.057338,83.5774372 211.725477,83.5774372" id="Fill-376"></path>
            <path d="M211.725477,104.471351 C210.393286,104.471351 209.313131,105.549578 209.313131,106.87906 C209.313131,108.208873 210.393286,109.286769 211.725477,109.286769 C213.057338,109.286769 214.137493,108.208873 214.137493,106.87906 C214.137493,105.549578 213.057338,104.471351 211.725477,104.471351" id="Fill-378"></path>
            <path d="M211.725477,125.365266 C210.393286,125.365266 209.313131,126.443492 209.313131,127.772974 C209.313131,129.102787 210.393286,130.180683 211.725477,130.180683 C213.057338,130.180683 214.137493,129.102787 214.137493,127.772974 C214.137493,126.443492 213.057338,125.365266 211.725477,125.365266" id="Fill-380"></path>
            <path d="M211.725477,146.25918 C210.393286,146.25918 209.313131,147.337406 209.313131,148.666889 C209.313131,149.996701 210.393286,151.074597 211.725477,151.074597 C213.057338,151.074597 214.137493,149.996701 214.137493,148.666889 C214.137493,147.337406 213.057338,146.25918 211.725477,146.25918" id="Fill-382"></path>
            <path d="M211.725477,167.153127 C210.393286,167.153127 209.313131,168.231353 209.313131,169.561165 C209.313131,170.890648 210.393286,171.968545 211.725477,171.968545 C213.057338,171.968545 214.137493,170.890648 214.137493,169.561165 C214.137493,168.231353 213.057338,167.153127 211.725477,167.153127" id="Fill-384"></path>
            <path d="M211.725477,188.047041 C210.393286,188.047041 209.313131,189.125267 209.313131,190.45508 C209.313131,191.784562 210.393286,192.862459 211.725477,192.862459 C213.057338,192.862459 214.137493,191.784562 214.137493,190.45508 C214.137493,189.125267 213.057338,188.047041 211.725477,188.047041" id="Fill-386"></path>
            <path d="M211.725477,208.941285 C210.393286,208.941285 209.313131,210.019181 209.313131,211.348994 C209.313131,212.678476 210.393286,213.756703 211.725477,213.756703 C213.057338,213.756703 214.137493,212.678476 214.137493,211.348994 C214.137493,210.019181 213.057338,208.941285 211.725477,208.941285" id="Fill-388"></path>
            <path d="M211.725477,229.835199 C210.393286,229.835199 209.313131,230.913096 209.313131,232.242908 C209.313131,233.572391 210.393286,234.650617 211.725477,234.650617 C213.057338,234.650617 214.137493,233.572391 214.137493,232.242908 C214.137493,230.913096 213.057338,229.835199 211.725477,229.835199" id="Fill-390"></path>
            <path d="M211.725477,250.729113 C210.393286,250.729113 209.313131,251.80701 209.313131,253.136822 C209.313131,254.466635 210.393286,255.544531 211.725477,255.544531 C213.057338,255.544531 214.137493,254.466635 214.137493,253.136822 C214.137493,251.80701 213.057338,250.729113 211.725477,250.729113" id="Fill-392"></path>
            <path d="M211.725477,271.623027 C210.393286,271.623027 209.313131,272.701254 209.313131,274.030736 C209.313131,275.360549 210.393286,276.438445 211.725477,276.438445 C213.057338,276.438445 214.137493,275.360549 214.137493,274.030736 C214.137493,272.701254 213.057338,271.623027 211.725477,271.623027" id="Fill-394"></path>
            <path d="M211.725477,292.516942 C210.393286,292.516942 209.313131,293.595168 209.313131,294.92465 C209.313131,296.254463 210.393286,297.332359 211.725477,297.332359 C213.057338,297.332359 214.137493,296.254463 214.137493,294.92465 C214.137493,293.595168 213.057338,292.516942 211.725477,292.516942" id="Fill-396"></path>
            <path d="M211.725477,310.113528 C210.393286,310.113528 209.313131,311.191754 209.313131,312.521237 C209.313131,313.851049 210.393286,314.928946 211.725477,314.928946 C213.057338,314.928946 214.137493,313.851049 214.137493,312.521237 C214.137493,311.191754 213.057338,310.113528 211.725477,310.113528" id="Fill-398"></path>
            <path d="M211.725477,327.710114 C210.393286,327.710114 209.313131,328.78834 209.313131,330.118153 C209.313131,331.447635 210.393286,332.525532 211.725477,332.525532 C213.057338,332.525532 214.137493,331.447635 214.137493,330.118153 C214.137493,328.78834 213.057338,327.710114 211.725477,327.710114" id="Fill-400"></path>
            <path d="M232.656764,0.00161569069 C231.324573,0.00161569069 230.244418,1.07951219 230.244418,2.40932455 C230.244418,3.73880718 231.324573,4.81703341 232.656764,4.81703341 C233.988625,4.81703341 235.068779,3.73880718 235.068779,2.40932455 C235.068779,1.07951219 233.988625,0.00161569069 232.656764,0.00161569069" id="Fill-402"></path>
            <path d="M232.656764,20.8955299 C231.324573,20.8955299 230.244418,21.9734264 230.244418,23.3032387 C230.244418,24.6327213 231.324573,25.7109476 232.656764,25.7109476 C233.988625,25.7109476 235.068779,24.6327213 235.068779,23.3032387 C235.068779,21.9734264 233.988625,20.8955299 232.656764,20.8955299" id="Fill-405"></path>
            <path d="M232.656764,41.789444 C231.324573,41.789444 230.244418,42.8673405 230.244418,44.1971529 C230.244418,45.5269652 231.324573,46.6048618 232.656764,46.6048618 C233.988625,46.6048618 235.068779,45.5269652 235.068779,44.1971529 C235.068779,42.8673405 233.988625,41.789444 232.656764,41.789444" id="Fill-407"></path>
            <path d="M232.656764,62.6833582 C231.324573,62.6833582 230.244418,63.7615844 230.244418,65.0910671 C230.244418,66.4208794 231.324573,67.4987759 232.656764,67.4987759 C233.988625,67.4987759 235.068779,66.4208794 235.068779,65.0910671 C235.068779,63.7615844 233.988625,62.6833582 232.656764,62.6833582" id="Fill-409"></path>
            <path d="M232.656764,83.5774372 C231.324573,83.5774372 230.244418,84.6553337 230.244418,85.9851461 C230.244418,87.3146287 231.324573,88.392855 232.656764,88.392855 C233.988625,88.392855 235.068779,87.3146287 235.068779,85.9851461 C235.068779,84.6553337 233.988625,83.5774372 232.656764,83.5774372" id="Fill-411"></path>
            <path d="M232.656764,104.471351 C231.324573,104.471351 230.244418,105.549578 230.244418,106.87906 C230.244418,108.208873 231.324573,109.286769 232.656764,109.286769 C233.988625,109.286769 235.068779,108.208873 235.068779,106.87906 C235.068779,105.549578 233.988625,104.471351 232.656764,104.471351" id="Fill-413"></path>
            <path d="M232.656764,125.365266 C231.324573,125.365266 230.244418,126.443492 230.244418,127.772974 C230.244418,129.102787 231.324573,130.180683 232.656764,130.180683 C233.988625,130.180683 235.068779,129.102787 235.068779,127.772974 C235.068779,126.443492 233.988625,125.365266 232.656764,125.365266" id="Fill-415"></path>
            <path d="M232.656764,146.25918 C231.324573,146.25918 230.244418,147.337406 230.244418,148.666889 C230.244418,149.996701 231.324573,151.074597 232.656764,151.074597 C233.988625,151.074597 235.068779,149.996701 235.068779,148.666889 C235.068779,147.337406 233.988625,146.25918 232.656764,146.25918" id="Fill-417"></path>
            <path d="M232.656764,167.153127 C231.324573,167.153127 230.244418,168.231353 230.244418,169.561165 C230.244418,170.890648 231.324573,171.968545 232.656764,171.968545 C233.988625,171.968545 235.068779,170.890648 235.068779,169.561165 C235.068779,168.231353 233.988625,167.153127 232.656764,167.153127" id="Fill-419"></path>
            <path d="M232.656764,188.047041 C231.324573,188.047041 230.244418,189.125267 230.244418,190.45508 C230.244418,191.784562 231.324573,192.862459 232.656764,192.862459 C233.988625,192.862459 235.068779,191.784562 235.068779,190.45508 C235.068779,189.125267 233.988625,188.047041 232.656764,188.047041" id="Fill-421"></path>
            <path d="M232.656764,208.941285 C231.324573,208.941285 230.244418,210.019181 230.244418,211.348994 C230.244418,212.678476 231.324573,213.756703 232.656764,213.756703 C233.988625,213.756703 235.068779,212.678476 235.068779,211.348994 C235.068779,210.019181 233.988625,208.941285 232.656764,208.941285" id="Fill-423"></path>
            <path d="M232.656764,229.835199 C231.324573,229.835199 230.244418,230.913096 230.244418,232.242908 C230.244418,233.572391 231.324573,234.650617 232.656764,234.650617 C233.988625,234.650617 235.068779,233.572391 235.068779,232.242908 C235.068779,230.913096 233.988625,229.835199 232.656764,229.835199" id="Fill-425"></path>
            <path d="M232.656764,250.729113 C231.324573,250.729113 230.244418,251.80701 230.244418,253.136822 C230.244418,254.466635 231.324573,255.544531 232.656764,255.544531 C233.988625,255.544531 235.068779,254.466635 235.068779,253.136822 C235.068779,251.80701 233.988625,250.729113 232.656764,250.729113" id="Fill-427"></path>
            <path d="M232.656764,271.623027 C231.324573,271.623027 230.244418,272.701254 230.244418,274.030736 C230.244418,275.360549 231.324573,276.438445 232.656764,276.438445 C233.988625,276.438445 235.068779,275.360549 235.068779,274.030736 C235.068779,272.701254 233.988625,271.623027 232.656764,271.623027" id="Fill-429"></path>
            <path d="M232.656764,292.516942 C231.324573,292.516942 230.244418,293.595168 230.244418,294.92465 C230.244418,296.254463 231.324573,297.332359 232.656764,297.332359 C233.988625,297.332359 235.068779,296.254463 235.068779,294.92465 C235.068779,293.595168 233.988625,292.516942 232.656764,292.516942" id="Fill-431"></path>
            <path d="M232.656764,310.113528 C231.324573,310.113528 230.244418,311.191754 230.244418,312.521237 C230.244418,313.851049 231.324573,314.928946 232.656764,314.928946 C233.988625,314.928946 235.068779,313.851049 235.068779,312.521237 C235.068779,311.191754 233.988625,310.113528 232.656764,310.113528" id="Fill-433"></path>
            <path d="M232.656764,327.710114 C231.324573,327.710114 230.244418,328.78834 230.244418,330.118153 C230.244418,331.447635 231.324573,332.525532 232.656764,332.525532 C233.988625,332.525532 235.068779,331.447635 235.068779,330.118153 C235.068779,328.78834 233.988625,327.710114 232.656764,327.710114" id="Fill-435"></path>
            <path d="M253.588051,0.00161569069 C252.25586,0.00161569069 251.176035,1.07951219 251.176035,2.40932455 C251.176035,3.73880718 252.25586,4.81703341 253.588051,4.81703341 C254.919911,4.81703341 256.000066,3.73880718 256.000066,2.40932455 C256.000066,1.07951219 254.919911,0.00161569069 253.588051,0.00161569069" id="Fill-437"></path>
            <path d="M253.588051,20.8955299 C252.25586,20.8955299 251.176035,21.9734264 251.176035,23.3032387 C251.176035,24.6327213 252.25586,25.7109476 253.588051,25.7109476 C254.919911,25.7109476 256.000066,24.6327213 256.000066,23.3032387 C256.000066,21.9734264 254.919911,20.8955299 253.588051,20.8955299" id="Fill-440"></path>
            <path d="M253.588051,41.789444 C252.25586,41.789444 251.176035,42.8673405 251.176035,44.1971529 C251.176035,45.5269652 252.25586,46.6048618 253.588051,46.6048618 C254.919911,46.6048618 256.000066,45.5269652 256.000066,44.1971529 C256.000066,42.8673405 254.919911,41.789444 253.588051,41.789444" id="Fill-443"></path>
            <path d="M253.588051,62.6833582 C252.25586,62.6833582 251.176035,63.7615844 251.176035,65.0910671 C251.176035,66.4208794 252.25586,67.4987759 253.588051,67.4987759 C254.919911,67.4987759 256.000066,66.4208794 256.000066,65.0910671 C256.000066,63.7615844 254.919911,62.6833582 253.588051,62.6833582" id="Fill-446"></path>
            <path d="M253.588051,83.5774372 C252.25586,83.5774372 251.176035,84.6553337 251.176035,85.9851461 C251.176035,87.3146287 252.25586,88.392855 253.588051,88.392855 C254.919911,88.392855 256.000066,87.3146287 256.000066,85.9851461 C256.000066,84.6553337 254.919911,83.5774372 253.588051,83.5774372" id="Fill-449"></path>
            <path d="M253.588051,104.471351 C252.25586,104.471351 251.176035,105.549578 251.176035,106.87906 C251.176035,108.208873 252.25586,109.286769 253.588051,109.286769 C254.919911,109.286769 256.000066,108.208873 256.000066,106.87906 C256.000066,105.549578 254.919911,104.471351 253.588051,104.471351" id="Fill-452"></path>
            <path d="M253.588051,125.365266 C252.25586,125.365266 251.176035,126.443492 251.176035,127.772974 C251.176035,129.102787 252.25586,130.180683 253.588051,130.180683 C254.919911,130.180683 256.000066,129.102787 256.000066,127.772974 C256.000066,126.443492 254.919911,125.365266 253.588051,125.365266" id="Fill-455"></path>
            <path d="M253.588051,146.25918 C252.25586,146.25918 251.176035,147.337406 251.176035,148.666889 C251.176035,149.996701 252.25586,151.074597 253.588051,151.074597 C254.919911,151.074597 256.000066,149.996701 256.000066,148.666889 C256.000066,147.337406 254.919911,146.25918 253.588051,146.25918" id="Fill-458"></path>
            <path d="M253.588051,167.153127 C252.25586,167.153127 251.176035,168.231353 251.176035,169.561165 C251.176035,170.890648 252.25586,171.968545 253.588051,171.968545 C254.919911,171.968545 256.000066,170.890648 256.000066,169.561165 C256.000066,168.231353 254.919911,167.153127 253.588051,167.153127" id="Fill-461"></path>
            <path d="M253.588051,188.047041 C252.25586,188.047041 251.176035,189.125267 251.176035,190.45508 C251.176035,191.784562 252.25586,192.862459 253.588051,192.862459 C254.919911,192.862459 256.000066,191.784562 256.000066,190.45508 C256.000066,189.125267 254.919911,188.047041 253.588051,188.047041" id="Fill-464"></path>
            <path d="M253.588051,208.941285 C252.25586,208.941285 251.176035,210.019181 251.176035,211.348994 C251.176035,212.678476 252.25586,213.756703 253.588051,213.756703 C254.919911,213.756703 256.000066,212.678476 256.000066,211.348994 C256.000066,210.019181 254.919911,208.941285 253.588051,208.941285" id="Fill-467"></path>
            <path d="M253.588051,229.835199 C252.25586,229.835199 251.176035,230.913096 251.176035,232.242908 C251.176035,233.572391 252.25586,234.650617 253.588051,234.650617 C254.919911,234.650617 256.000066,233.572391 256.000066,232.242908 C256.000066,230.913096 254.919911,229.835199 253.588051,229.835199" id="Fill-470"></path>
            <path d="M253.588051,250.729113 C252.25586,250.729113 251.176035,251.80701 251.176035,253.136822 C251.176035,254.466635 252.25586,255.544531 253.588051,255.544531 C254.919911,255.544531 256.000066,254.466635 256.000066,253.136822 C256.000066,251.80701 254.919911,250.729113 253.588051,250.729113" id="Fill-473"></path>
            <path d="M253.588051,271.623027 C252.25586,271.623027 251.176035,272.701254 251.176035,274.030736 C251.176035,275.360549 252.25586,276.438445 253.588051,276.438445 C254.919911,276.438445 256.000066,275.360549 256.000066,274.030736 C256.000066,272.701254 254.919911,271.623027 253.588051,271.623027" id="Fill-476"></path>
            <path d="M253.588051,292.516942 C252.25586,292.516942 251.176035,293.595168 251.176035,294.92465 C251.176035,296.254463 252.25586,297.332359 253.588051,297.332359 C254.919911,297.332359 256.000066,296.254463 256.000066,294.92465 C256.000066,293.595168 254.919911,292.516942 253.588051,292.516942" id="Fill-479"></path>
            <path d="M253.588051,310.113528 C252.25586,310.113528 251.176035,311.191754 251.176035,312.521237 C251.176035,313.851049 252.25586,314.928946 253.588051,314.928946 C254.919911,314.928946 256.000066,313.851049 256.000066,312.521237 C256.000066,311.191754 254.919911,310.113528 253.588051,310.113528" id="Fill-482"></path>
            <path d="M253.588051,327.710114 C252.25586,327.710114 251.176035,328.78834 251.176035,330.118153 C251.176035,331.447635 252.25586,332.525532 253.588051,332.525532 C254.919911,332.525532 256.000066,331.447635 256.000066,330.118153 C256.000066,328.78834 254.919911,327.710114 253.588051,327.710114" id="Fill-485"></path>
        </g>
    </g>
</svg>